<svg width="80" height="50" fill="none" xmlns="http://www.w3.org/2000/svg"><g clip-path="url(#clip0)" fill-rule="evenodd" clip-rule="evenodd"><path d="M49.4365 15.8791C40.6497 7.0923 30.2025 3.2933 26.102 7.3938c-4.1005 4.1005-.3015 14.5478 8.4853 23.3345 8.7868 8.7868 19.234 12.5858 23.3345 8.4853 4.1005-4.1005.3015-14.5477-8.4853-23.3345z" fill="url(#paint0_linear_minimize)"></path><path d="M45.2446 19.9323c-8.7868-8.7868-19.234-12.5858-23.3345-8.4853-4.1005 4.1005-.3015 14.5477 8.4853 23.3345 8.7868 8.7868 19.234 12.5858 23.3345 8.4853 4.1005-4.1005.3015-14.5477-8.4853-23.3345z" fill="url(#paint1_linear_minimize)"></path><path d="M35.7209 7.554c-4.1411-1.5058-7.2487-1.2549-8.861.3575-1.6124 1.6123-1.8633 4.7199-.3574 8.861 1.4752 4.0569 4.5287 8.7454 8.8426 13.0593 4.3139 4.3139 9.0024 7.3674 13.0593 8.8427 4.1411 1.5058 7.2487 1.2549 8.8611-.3574 1.6123-1.6124 1.8632-4.72.3574-8.8611-1.4753-4.0569-4.5288-8.7453-8.8427-13.0592s-9.0024-7.3675-13.0593-8.8427zm13.7664 8.1356c-8.7868-8.7868-19.234-12.5857-23.3345-8.4852-4.1005 4.1005-.3016 14.5477 8.4852 23.3345 8.7868 8.7868 19.2341 12.5858 23.3346 8.4853 4.1005-4.1005.3015-14.5478-8.4853-23.3346z" fill="url(#paint2_linear_minimize)"></path><path d="M22.6211 12.1503a.138.138 0 00-.0039.0038c-1.6123 1.6123-1.8633 4.7199-.3574 8.861 1.4752 4.0569 4.5288 8.7454 8.8427 13.0593s9.0024 7.3674 13.0593 8.8427c4.1411 1.5058 7.2487 1.2549 8.861-.3574 1.6123-1.6124 1.8633-4.72.3574-8.8611-1.4752-4.0569-4.5288-8.7453-8.8427-13.0592s-9.0023-7.3675-13.0592-8.8427c-4.1379-1.5047-7.2438-1.2553-8.8572.3536zm2.1917-2.1918c5.0348-1.0225 13.2829 2.8248 20.4318 9.9738 7.149 7.1489 10.9963 15.397 9.9738 20.4318l2.7542-2.7542.7071.7071-4.9498 4.9498c-4.1005 4.1005-14.5477.3015-23.3345-8.4853-8.7868-8.7868-12.5858-19.234-8.4853-23.3345l.0044-.0044 4.5918-4.5918.7071.7071-2.4006 2.4006z" fill="url(#paint3_linear_minimize)"></path></g><defs><linearGradient id="paint0_linear_minimize" x1="53.5" y1="16.5" x2="38.5" y2="32" gradientUnits="userSpaceOnUse"><stop stop-color="#002EFF"></stop><stop offset="1" stop-color="#002EFF" stop-opacity="0"></stop></linearGradient><linearGradient id="paint1_linear_minimize" x1="30.3954" y1="34.7815" x2="45.2446" y2="19.9323" gradientUnits="userSpaceOnUse"><stop stop-color="#F80196" stop-opacity=".54"></stop><stop offset="1" stop-color="#F80196" stop-opacity="0"></stop></linearGradient><linearGradient id="paint2_linear_minimize" x1="34.638" y1="30.5389" x2="49.4873" y2="15.6896" gradientUnits="userSpaceOnUse"><stop stop-color="#002EFF"></stop><stop offset="1" stop-color="#002EFF" stop-opacity="0"></stop></linearGradient><linearGradient id="paint3_linear_minimize" x1="30.3954" y1="34.7815" x2="45.2446" y2="19.9323" gradientUnits="userSpaceOnUse"><stop stop-color="#F80196"></stop><stop offset="1" stop-color="#002EFF" stop-opacity="0"></stop></linearGradient><clipPath id="clip0"><path fill="#fff" d="M0 0h80v50H0z"></path></clipPath></defs></svg>