<svg width="270" height="135" fill="none" xmlns="http://www.w3.org/2000/svg"><g clip-path="url(#clip0_coin)"><path d="M108.477 106.591c-2.527-4.376-1.134-10.8203 3.855-17.951 4.939-7.0572 13.198-14.4584 23.627-20.4795 10.429-6.0212 20.968-9.4734 29.549-10.2216 8.671-.756 14.948 1.2605 17.475 5.6364 2.526 4.3759 1.134 10.8206-3.856 17.9513-4.939 7.0572-13.198 14.4584-23.627 20.4794-10.429 6.021-20.968 9.473-29.549 10.222-8.67.756-14.948-1.261-17.474-5.637z" fill="url(#paint0_radial_coin)" stroke="url(#paint1_linear_coin)" stroke-width="2"></path><path d="M102.94 96.6181c-2.526-4.3759-1.134-10.8206 3.856-17.9512 4.938-7.0573 13.198-14.4585 23.627-20.4796 10.429-6.0211 20.968-9.4734 29.549-10.2215 8.67-.756 14.948 1.2604 17.474 5.6364 2.526 4.3759 1.134 10.8206-3.856 17.9512-4.938 7.0573-13.198 14.4584-23.626 20.4795-10.429 6.0212-20.969 9.4731-29.55 10.2221-8.67.755-14.947-1.261-17.474-5.6369z" fill="url(#paint2_radial_coin)"></path><path d="M102.94 96.6181c-2.526-4.3759-1.134-10.8206 3.856-17.9512 4.938-7.0573 13.198-14.4585 23.627-20.4796 10.429-6.0211 20.968-9.4734 29.549-10.2215 8.67-.756 14.948 1.2604 17.474 5.6364 2.526 4.3759 1.134 10.8206-3.856 17.9512-4.938 7.0573-13.198 14.4584-23.626 20.4795-10.429 6.0212-20.969 9.4731-29.55 10.2221-8.67.755-14.947-1.261-17.474-5.6369z" fill="url(#paint3_radial_coin)"></path><path d="M102.94 96.6181c-2.526-4.3759-1.134-10.8206 3.856-17.9512 4.938-7.0573 13.198-14.4585 23.627-20.4796 10.429-6.0211 20.968-9.4734 29.549-10.2215 8.67-.756 14.948 1.2604 17.474 5.6364 2.526 4.3759 1.134 10.8206-3.856 17.9512-4.938 7.0573-13.198 14.4584-23.626 20.4795-10.429 6.0212-20.969 9.4731-29.55 10.2221-8.67.755-14.947-1.261-17.474-5.6369z" fill="url(#paint4_radial_coin)"></path><path d="M102.94 96.6181c-2.526-4.3759-1.134-10.8206 3.856-17.9512 4.938-7.0573 13.198-14.4585 23.627-20.4796 10.429-6.0211 20.968-9.4734 29.549-10.2215 8.67-.756 14.948 1.2604 17.474 5.6364 2.526 4.3759 1.134 10.8206-3.856 17.9512-4.938 7.0573-13.198 14.4584-23.626 20.4795-10.429 6.0212-20.969 9.4731-29.55 10.2221-8.67.755-14.947-1.261-17.474-5.6369z" stroke="url(#paint5_linear_coin)" stroke-width="2"></path><path d="M102.94 96.6181c-2.526-4.3759-1.134-10.8206 3.856-17.9512 4.938-7.0573 13.198-14.4585 23.627-20.4796 10.429-6.0211 20.968-9.4734 29.549-10.2215 8.67-.756 14.948 1.2604 17.474 5.6364 2.526 4.3759 1.134 10.8206-3.856 17.9512-4.938 7.0573-13.198 14.4584-23.626 20.4795-10.429 6.0212-20.969 9.4731-29.55 10.2221-8.67.755-14.947-1.261-17.474-5.6369z" stroke="url(#paint6_linear_coin)" stroke-width="2"></path><path d="M87.6625 71.3128c-2.5265-4.3759-1.134-10.8206 3.8558-17.9512 4.9384-7.0573 13.1977-14.4585 23.6267-20.4796 10.429-6.0211 20.968-9.4734 29.549-10.2215 8.67-.756 14.948 1.2604 17.474 5.6364 2.527 4.3759 1.134 10.8206-3.856 17.9512-4.938 7.0573-13.197 14.4584-23.626 20.4796-10.429 6.0211-20.968 9.4733-29.549 10.2215-8.6706.756-14.9481-1.2605-17.4745-5.6364z" fill="url(#paint7_radial_coin)" stroke="url(#paint8_linear_coin)" stroke-width="2"></path><path opacity=".4" fill-rule="evenodd" clip-rule="evenodd" d="M106.124 77.9019c5.057-7.1287 13.368-14.524 23.779-20.5346 10.16-5.8659 20.463-9.3409 29.041-10.2621-5.056 7.1288-13.368 14.5241-23.778 20.5346-10.16 5.8659-20.463 9.3409-29.042 10.2621z" fill="url(#paint9_radial_coin)"></path></g><defs><radialGradient id="paint0_radial_coin" cx="0" cy="0" r="1" gradientUnits="userSpaceOnUse" gradientTransform="matrix(92.42346 -55.74438 119.45224 198.05028 92 119)"><stop stop-color="#002EFF"></stop><stop offset="1" stop-color="#002EFF" stop-opacity="0"></stop></radialGradient><radialGradient id="paint2_radial_coin" cx="0" cy="0" r="1" gradientUnits="userSpaceOnUse" gradientTransform="matrix(19.88433 32.75805 -70.19582 42.60928 123.116 58.242)"><stop stop-color="#002EFF"></stop><stop offset="1" stop-color="#002EFF" stop-opacity="0"></stop></radialGradient><radialGradient id="paint3_radial_coin" cx="0" cy="0" r="1" gradientUnits="userSpaceOnUse" gradientTransform="rotate(53.842 3.4287 155.4963) scale(35.3012 75.6454)"><stop stop-color="#F80196"></stop><stop offset="1" stop-color="#F80196" stop-opacity="0"></stop></radialGradient><radialGradient id="paint4_radial_coin" cx="0" cy="0" r="1" gradientUnits="userSpaceOnUse" gradientTransform="matrix(16.99147 25.2132 -54.02831 36.41032 130.789 59.8864)"><stop stop-color="#FF4D00"></stop><stop offset="1" stop-color="#002EFF" stop-opacity="0"></stop></radialGradient><radialGradient id="paint7_radial_coin" cx="0" cy="0" r="1" gradientUnits="userSpaceOnUse" gradientTransform="rotate(-129.987 83.8732 2.6746) scale(44.3532 95.0425)"><stop stop-color="#F80196"></stop><stop offset="1" stop-color="#F80196" stop-opacity="0"></stop></radialGradient><radialGradient id="paint9_radial_coin" cx="0" cy="0" r="1" gradientUnits="userSpaceOnUse" gradientTransform="matrix(-42.4544 22.5278 -48.27374 -90.97348 155.454 49.4722)"><stop stop-color="#FFE600"></stop><stop offset="1" stop-color="#FF4D00" stop-opacity="0"></stop></radialGradient><linearGradient id="paint1_linear_coin" x1="157" y1="103" x2="143" y2="87.5" gradientUnits="userSpaceOnUse"><stop stop-color="#002EFF"></stop><stop offset="1" stop-color="#002EFF" stop-opacity="0"></stop></linearGradient><linearGradient id="paint5_linear_coin" x1="178" y1="53.0001" x2="104" y2="100.5" gradientUnits="userSpaceOnUse"><stop stop-color="#002EFF"></stop><stop offset="1" stop-color="#002EFF" stop-opacity="0"></stop></linearGradient><linearGradient id="paint6_linear_coin" x1="133.53" y1="56.0496" x2="154.358" y2="89.4845" gradientUnits="userSpaceOnUse"><stop stop-color="#F80196"></stop><stop offset=".6667" stop-color="#F80196" stop-opacity="0"></stop></linearGradient><linearGradient id="paint8_linear_coin" x1="128.597" y1="26.9995" x2="114.645" y2="32.016" gradientUnits="userSpaceOnUse"><stop stop-color="#F80196"></stop><stop offset="1" stop-color="#F80196" stop-opacity="0"></stop></linearGradient><clipPath id="clip0_coin"><path fill="#fff" d="M0 0h270v135H0z"></path></clipPath></defs></svg>